<svg xmlns="http://www.w3.org/2000/svg" viewBox="0 0 1200 560" width="1200" height="560" role="img" aria-label="ForeverLuvd hero">
<title>ForeverLuvd hero</title>
<rect width="1200" height="560" fill="#fef6eb"/>
<defs><linearGradient id="gh" x1="0" y1="0" x2="1" y2="1"><stop offset="0%" stop-color="#be7e4c"/><stop offset="100%" stop-color="#b4573f"/></linearGradient></defs><rect x="96.00" y="150.00" width="88.00" height="72.00" rx="8.00" fill="#be7e4c" opacity="0.48"/><rect x="196.00" y="150.00" width="88.00" height="72.00" rx="8.00" fill="#b4573f" opacity="0.84"/><rect x="296.00" y="150.00" width="88.00" height="72.00" rx="8.00" fill="#6c8a62" opacity="0.48"/><rect x="396.00" y="150.00" width="88.00" height="72.00" rx="8.00" fill="#be7e4c" opacity="0.72"/><rect x="496.00" y="150.00" width="88.00" height="72.00" rx="8.00" fill="#b4573f" opacity="0.40"/><rect x="596.00" y="150.00" width="88.00" height="72.00" rx="8.00" fill="#6c8a62" opacity="0.90"/><rect x="696.00" y="150.00" width="88.00" height="72.00" rx="8.00" fill="#be7e4c" opacity="0.47"/><rect x="796.00" y="150.00" width="88.00" height="72.00" rx="8.00" fill="#b4573f" opacity="0.63"/><rect x="896.00" y="150.00" width="88.00" height="72.00" rx="8.00" fill="#6c8a62" opacity="0.78"/><rect x="996.00" y="150.00" width="88.00" height="72.00" rx="8.00" fill="#be7e4c" opacity="0.50"/><rect x="96.00" y="234.00" width="88.00" height="72.00" rx="8.00" fill="#b4573f" opacity="0.54"/><rect x="196.00" y="234.00" width="88.00" height="72.00" rx="8.00" fill="#6c8a62" opacity="0.68"/><rect x="296.00" y="234.00" width="88.00" height="72.00" rx="8.00" fill="#be7e4c" opacity="0.62"/><rect x="396.00" y="234.00" width="88.00" height="72.00" rx="8.00" fill="#b4573f" opacity="0.78"/><rect x="496.00" y="234.00" width="88.00" height="72.00" rx="8.00" fill="#6c8a62" opacity="0.45"/><rect x="596.00" y="234.00" width="88.00" height="72.00" rx="8.00" fill="#be7e4c" opacity="0.54"/><rect x="696.00" y="234.00" width="88.00" height="72.00" rx="8.00" fill="#b4573f" opacity="0.56"/><rect x="796.00" y="234.00" width="88.00" height="72.00" rx="8.00" fill="#6c8a62" opacity="0.43"/><rect x="896.00" y="234.00" width="88.00" height="72.00" rx="8.00" fill="#be7e4c" opacity="0.57"/><rect x="996.00" y="234.00" width="88.00" height="72.00" rx="8.00" fill="#b4573f" opacity="0.41"/><rect x="96.00" y="318.00" width="88.00" height="72.00" rx="8.00" fill="#6c8a62" opacity="0.61"/><rect x="196.00" y="318.00" width="88.00" height="72.00" rx="8.00" fill="#be7e4c" opacity="0.95"/><rect x="296.00" y="318.00" width="88.00" height="72.00" rx="8.00" fill="#b4573f" opacity="0.53"/><rect x="396.00" y="318.00" width="88.00" height="72.00" rx="8.00" fill="#6c8a62" opacity="0.86"/><rect x="496.00" y="318.00" width="88.00" height="72.00" rx="8.00" fill="#be7e4c" opacity="0.83"/><rect x="596.00" y="318.00" width="88.00" height="72.00" rx="8.00" fill="#b4573f" opacity="0.72"/><rect x="696.00" y="318.00" width="88.00" height="72.00" rx="8.00" fill="#6c8a62" opacity="0.57"/><rect x="796.00" y="318.00" width="88.00" height="72.00" rx="8.00" fill="#be7e4c" opacity="0.88"/><rect x="896.00" y="318.00" width="88.00" height="72.00" rx="8.00" fill="#b4573f" opacity="0.93"/><rect x="996.00" y="318.00" width="88.00" height="72.00" rx="8.00" fill="#6c8a62" opacity="0.93"/><rect x="96.00" y="402.00" width="88.00" height="72.00" rx="8.00" fill="#be7e4c" opacity="0.81"/><rect x="196.00" y="402.00" width="88.00" height="72.00" rx="8.00" fill="#b4573f" opacity="0.79"/><rect x="296.00" y="402.00" width="88.00" height="72.00" rx="8.00" fill="#6c8a62" opacity="0.69"/><rect x="396.00" y="402.00" width="88.00" height="72.00" rx="8.00" fill="#be7e4c" opacity="0.38"/><rect x="496.00" y="402.00" width="88.00" height="72.00" rx="8.00" fill="#b4573f" opacity="0.41"/><rect x="596.00" y="402.00" width="88.00" height="72.00" rx="8.00" fill="#6c8a62" opacity="0.54"/><rect x="696.00" y="402.00" width="88.00" height="72.00" rx="8.00" fill="#be7e4c" opacity="0.61"/><rect x="796.00" y="402.00" width="88.00" height="72.00" rx="8.00" fill="#b4573f" opacity="0.91"/><rect x="896.00" y="402.00" width="88.00" height="72.00" rx="8.00" fill="#6c8a62" opacity="0.75"/><rect x="996.00" y="402.00" width="88.00" height="72.00" rx="8.00" fill="#be7e4c" opacity="0.76"/><rect x="96.00" y="486.00" width="88.00" height="72.00" rx="8.00" fill="#b4573f" opacity="0.88"/><rect x="196.00" y="486.00" width="88.00" height="72.00" rx="8.00" fill="#6c8a62" opacity="0.89"/><rect x="296.00" y="486.00" width="88.00" height="72.00" rx="8.00" fill="#be7e4c" opacity="0.90"/><rect x="396.00" y="486.00" width="88.00" height="72.00" rx="8.00" fill="#b4573f" opacity="0.79"/><rect x="496.00" y="486.00" width="88.00" height="72.00" rx="8.00" fill="#6c8a62" opacity="0.54"/><rect x="596.00" y="486.00" width="88.00" height="72.00" rx="8.00" fill="#be7e4c" opacity="0.46"/><rect x="696.00" y="486.00" width="88.00" height="72.00" rx="8.00" fill="#b4573f" opacity="0.87"/><rect x="796.00" y="486.00" width="88.00" height="72.00" rx="8.00" fill="#6c8a62" opacity="0.62"/><rect x="896.00" y="486.00" width="88.00" height="72.00" rx="8.00" fill="#be7e4c" opacity="0.38"/><rect x="996.00" y="486.00" width="88.00" height="72.00" rx="8.00" fill="#b4573f" opacity="0.66"/><g><rect x="96.00" y="150.00" width="88.00" height="72.00" rx="8.00" fill="#6c8a62" opacity="0.80"/><animate attributeName="opacity" values="0.25;1.0;0.25" dur="8.866666666666667s" begin="0.47s" repeatCount="indefinite" /></g><g><rect x="196.00" y="150.00" width="88.00" height="72.00" rx="8.00" fill="#6c8a62" opacity="0.80"/><animate attributeName="opacity" values="0.25;1.0;0.25" dur="8.866666666666667s" begin="0.79s" repeatCount="indefinite" /></g><g><rect x="296.00" y="150.00" width="88.00" height="72.00" rx="8.00" fill="#6c8a62" opacity="0.80"/><animate attributeName="opacity" values="0.25;1.0;0.25" dur="8.866666666666667s" begin="1.1099999999999999s" repeatCount="indefinite" /></g><g><rect x="396.00" y="150.00" width="88.00" height="72.00" rx="8.00" fill="#6c8a62" opacity="0.80"/><animate attributeName="opacity" values="0.25;1.0;0.25" dur="8.866666666666667s" begin="1.43s" repeatCount="indefinite" /></g><g><rect x="496.00" y="150.00" width="88.00" height="72.00" rx="8.00" fill="#6c8a62" opacity="0.80"/><animate attributeName="opacity" values="0.25;1.0;0.25" dur="8.866666666666667s" begin="1.75s" repeatCount="indefinite" /></g><g><rect x="596.00" y="150.00" width="88.00" height="72.00" rx="8.00" fill="#6c8a62" opacity="0.80"/><animate attributeName="opacity" values="0.25;1.0;0.25" dur="8.866666666666667s" begin="2.0700000000000003s" repeatCount="indefinite" /></g><g><rect x="696.00" y="150.00" width="88.00" height="72.00" rx="8.00" fill="#6c8a62" opacity="0.80"/><animate attributeName="opacity" values="0.25;1.0;0.25" dur="8.866666666666667s" begin="2.3899999999999997s" repeatCount="indefinite" /></g><g><rect x="796.00" y="150.00" width="88.00" height="72.00" rx="8.00" fill="#6c8a62" opacity="0.80"/><animate attributeName="opacity" values="0.25;1.0;0.25" dur="8.866666666666667s" begin="2.71s" repeatCount="indefinite" /></g><g><rect x="896.00" y="150.00" width="88.00" height="72.00" rx="8.00" fill="#6c8a62" opacity="0.80"/><animate attributeName="opacity" values="0.25;1.0;0.25" dur="8.866666666666667s" begin="3.0300000000000002s" repeatCount="indefinite" /></g><g><rect x="996.00" y="150.00" width="88.00" height="72.00" rx="8.00" fill="#6c8a62" opacity="0.80"/><animate attributeName="opacity" values="0.25;1.0;0.25" dur="8.866666666666667s" begin="3.3499999999999996s" repeatCount="indefinite" /></g>
</svg>